<svg width="20" height="20" viewBox="0 0 20 20" fill="none" xmlns="http://www.w3.org/2000/svg">
<path d="M4.32031 8.75H12.6797L9.4375 5.64844C8.97266 5.16016 8.97266 4.37109 9.4375 3.88281C9.90234 3.39453 10.6563 3.39453 11.125 3.88281L16.5234 9.11719C16.7578 9.34375 16.875 9.65234 16.875 9.99219V10.0078C16.875 10.3477 16.7578 10.6563 16.5234 10.8828L11.1289 16.1172C10.6602 16.6055 9.90625 16.6055 9.44141 16.1172C8.97656 15.6289 8.97656 14.8398 9.44141 14.3516L12.6836 11.25H4.32422C3.66406 11.25 3.12891 10.6914 3.12891 10C3.125 9.29688 3.66016 8.75 4.32031 8.75V8.75Z" fill="#624C3C"/>
</svg>
