<svg width="20" height="20" viewBox="0 0 20 20" fill="none" xmlns="http://www.w3.org/2000/svg">
<path d="M15.6797 8.75H7.32031L10.5625 5.64844C11.0273 5.16016 11.0273 4.37109 10.5625 3.88281C10.0977 3.39453 9.34375 3.39453 8.875 3.88281L3.47656 9.11719C3.24219 9.34375 3.125 9.65234 3.125 9.99219V10.0078C3.125 10.3477 3.24219 10.6563 3.47656 10.8828L8.87109 16.1172C9.33984 16.6055 10.0937 16.6055 10.5586 16.1172C11.0234 15.6289 11.0234 14.8398 10.5586 14.3516L7.31641 11.25H15.6758C16.3359 11.25 16.8711 10.6914 16.8711 10C16.875 9.29688 16.3398 8.75 15.6797 8.75Z" fill="#624C3C"/>
</svg>
