<svg width="35" height="35" viewBox="0 0 35 35" fill="none" xmlns="http://www.w3.org/2000/svg">
<path d="M19.8202 17.5L26.3143 11.0058C26.6225 10.6982 26.7959 10.2807 26.7963 9.84518C26.7966 9.40969 26.624 8.99188 26.3163 8.68367C26.0087 8.37546 25.5912 8.20209 25.1557 8.20171C24.7202 8.20132 24.3024 8.37395 23.9942 8.68162L17.5 15.1758L11.0059 8.68162C10.6977 8.37341 10.2797 8.20026 9.84379 8.20026C9.40791 8.20026 8.98989 8.37341 8.68168 8.68162C8.37347 8.98983 8.20032 9.40785 8.20032 9.84373C8.20032 10.2796 8.37347 10.6976 8.68168 11.0058L15.1758 17.5L8.68168 23.9941C8.37347 24.3023 8.20032 24.7204 8.20032 25.1562C8.20032 25.5921 8.37347 26.0101 8.68168 26.3183C8.98989 26.6265 9.40791 26.7997 9.84379 26.7997C10.2797 26.7997 10.6977 26.6265 11.0059 26.3183L17.5 19.8242L23.9942 26.3183C24.3024 26.6265 24.7204 26.7997 25.1563 26.7997C25.5922 26.7997 26.0102 26.6265 26.3184 26.3183C26.6266 26.0101 26.7998 25.5921 26.7998 25.1562C26.7998 24.7204 26.6266 24.3023 26.3184 23.9941L19.8202 17.5Z" fill="white"/>
</svg>
