<svg width="1366" height="768" viewBox="0 0 1366 768" fill="none" xmlns="http://www.w3.org/2000/svg">
<g clip-path="url(#clip0)">
<rect width="1366" height="768" fill="#624C3C"/>
<path d="M282.805 316.486C282.805 317.02 283.338 317.553 283.872 317.553C284.512 317.553 284.939 317.02 284.939 316.486C284.939 315.846 284.512 315.419 283.872 315.419C283.338 315.419 282.805 315.846 282.805 316.486Z" fill="#2B2821"/>
<path d="M283.658 334.842L283.125 351.17L274.801 370.699L266.583 390.229L266.69 418.936C266.904 443.801 266.69 447.75 265.303 447.75C264.342 447.75 263.595 449.031 263.382 451.165L263.062 454.687H256.659H250.255L249.935 451.165L249.615 447.75H242.678H235.848V468.453V489.264L232.967 489.584C230.619 489.797 229.872 490.544 229.659 492.785C229.339 495.667 229.125 495.773 222.402 495.773H215.572V492.572V489.37H208.635H201.698V482.434C201.698 475.71 201.805 475.497 204.366 475.497C206.928 475.497 207.034 475.283 207.034 467.493C207.034 460.343 206.821 459.489 205.007 459.489C203.726 459.489 202.766 460.343 202.552 461.623C202.339 462.904 201.805 463.971 201.165 464.078C199.671 464.398 199.137 422.351 200.631 420.537C201.378 419.683 199.991 415.414 195.829 406.13C190.92 395.138 189.959 391.936 189.959 386.814C189.959 383.399 190.493 380.304 191.133 379.984C191.774 379.557 196.683 379.023 202.019 378.81C212.69 378.383 225.924 376.675 222.509 376.248C220.588 376.035 220.694 375.928 223.042 375.075C224.75 374.541 221.548 374.328 213.758 374.541C204.58 374.754 201.698 374.434 201.272 373.367C200.845 372.513 198.817 371.98 195.402 371.98C192.2 371.98 189.959 371.446 189.639 370.592C189.319 369.952 188.999 374.541 188.999 380.837C188.892 392.363 188.892 392.576 183.556 404.849L178.114 417.335L178.22 441.027C178.22 456.714 177.9 464.825 177.153 464.825C176.62 464.825 176.086 463.651 176.086 462.157C176.086 460.023 175.552 459.489 173.418 459.489C170.857 459.489 170.75 459.703 170.75 467.493C170.75 475.283 170.857 475.497 173.418 475.497H176.086V524.694V573.892L172.671 573.251C170.75 572.824 168.402 572.291 167.548 572.184C166.695 571.971 162.426 571.224 158.264 570.477L150.473 569.089L150.367 564.18L150.26 559.271L149.193 563.54C148.552 565.888 147.912 567.915 147.805 568.129C147.699 568.235 143.11 567.488 137.56 566.315C132.011 565.247 125.715 563.967 123.367 563.54L119.312 562.9L119.952 556.39C120.485 552.014 120.379 550.2 119.632 550.734C118.991 551.054 118.458 552.441 118.458 553.722C118.458 555.002 118.138 557.243 117.711 558.524C117.284 560.445 116.857 560.658 116.217 559.591C115.47 558.524 115.256 558.631 115.256 560.018C115.256 561.192 114.509 561.939 113.442 561.939C108.96 561.726 90.6042 558.951 89.9639 558.311C89.537 557.99 90.7109 556.07 92.5252 554.149C94.2327 552.334 96.367 549.026 97.1141 546.998C97.9678 544.971 99.035 542.943 99.5686 542.623C100.742 541.769 103.517 534.939 104.264 530.67C105.011 526.508 102.557 526.935 97.1141 531.738C91.7781 536.54 87.0825 543.904 84.4145 552.014C82.9205 556.603 81.7466 558.311 80.1458 558.524C77.4778 558.951 77.2644 556.923 78.9719 548.066C80.1458 541.983 79.3987 537.074 77.4778 537.714C75.5569 538.354 71.1814 546.998 69.9008 552.868C68.9403 556.923 68.1933 558.311 66.4858 558.524C64.6716 558.844 64.138 557.99 63.0708 552.761C62.4305 549.346 61.8969 543.477 61.8969 539.528C61.8969 526.935 56.2408 512.955 47.5966 503.991C42.1539 498.441 39.4859 497.588 39.4859 501.43C39.4859 504.311 42.0472 512.528 44.9286 518.931C45.9958 521.493 46.9562 523.947 46.9562 524.481C46.9562 525.014 48.8772 528.003 51.225 531.097C53.5728 534.299 55.4937 537.394 55.4937 538.034C55.4937 538.674 56.5609 541.342 57.9483 543.904C60.4028 548.386 63.4977 558.631 62.6439 559.378C62.5372 559.591 58.3752 560.765 53.5728 562.046C44.9286 564.394 44.7152 564.394 43.1144 562.366C41.5136 560.338 41.5136 560.445 41.9405 562.579C42.3673 564.714 41.3002 565.141 29.4544 568.342C22.4109 570.263 15.9011 572.077 15.2608 572.398C14.3003 572.718 13.8734 571.437 13.7667 568.235C13.66 565.568 13.4466 564.714 13.1264 566.208C12.1659 572.611 11.6323 573.465 8.43078 574.639C6.50984 575.279 3.84187 575.813 2.56125 575.813H0V767.906V960H683H1366V776.124C1366 609.109 1365.89 592.034 1364.29 589.899C1363.33 588.512 1362.16 586.164 1361.73 584.563C1361.09 582.536 1360.77 584.457 1360.66 591.287L1360.45 600.891L1357.14 587.231C1353.83 573.465 1351.81 569.089 1353.41 579.228C1353.94 582.322 1354.47 599.504 1354.79 617.433L1355.22 649.982L1353.73 631.84C1350.63 592.247 1345.94 553.188 1344.12 551.481C1343.7 551.054 1343.59 561.085 1343.91 573.678C1344.44 596.409 1343.59 593.955 1341.88 568.022C1341.24 557.243 1339.32 553.615 1339.32 563.006C1339.32 566.315 1338.36 570.797 1336.76 574.532C1335.37 577.84 1331.96 586.805 1329.18 594.488C1326.41 602.065 1323.74 608.789 1323.31 609.215C1322.99 609.642 1322.03 606.548 1321.28 602.279C1318.83 588.512 1318.08 590.54 1318.08 610.496C1318.08 627.678 1317.76 631.093 1315.1 642.725C1313.49 649.982 1311.89 655.852 1311.57 655.852C1311.25 655.852 1310.19 651.049 1309.12 645.18C1306.34 628.745 1301.65 606.761 1301.01 606.761C1300.69 606.761 1300.47 617.219 1300.58 629.919C1300.79 658.306 1299.51 654.891 1297.7 622.235C1296.95 609.322 1295.89 598.33 1295.46 597.69C1294.93 597.156 1294.5 599.611 1294.5 603.346C1294.5 614.018 1292.79 610.923 1292.04 598.97C1290.87 579.548 1287.78 549.666 1286.81 548.599C1286.39 548.066 1285.96 561.299 1285.96 577.947C1285.85 620.314 1282.76 668.124 1280.3 663.749C1278.38 660.44 1278.81 602.599 1280.95 584.99C1282.65 570.156 1282.76 565.354 1281.27 570.156C1279.56 575.813 1271.66 613.378 1268.14 632.587C1265.9 644.86 1263.87 654.784 1263.55 654.784C1263.12 654.784 1261.95 647.421 1260.78 638.456C1259.07 625.01 1258.75 616.366 1258.96 588.085C1259.07 566.208 1258.85 555.429 1258.21 558.204C1257.68 560.552 1257.25 564.073 1257.25 565.994C1257.15 567.915 1256.61 569.303 1255.97 569.196C1255.23 568.983 1254.05 571.544 1253.2 574.745C1252.45 577.947 1251.28 581.469 1250.74 582.429C1250.21 583.39 1248.93 587.978 1247.97 592.461C1247.12 597.05 1245.19 602.919 1243.91 605.587C1242.53 608.255 1239.11 617.326 1236.23 625.65C1233.46 634.081 1230.79 640.271 1230.36 639.524C1229.93 638.883 1229.29 634.188 1228.97 629.172C1228.55 624.156 1227.59 614.551 1226.73 607.828C1225.13 595.876 1225.24 595.129 1227.8 580.722C1231.21 561.512 1230.57 560.232 1225.56 576.133L1223.64 582.429L1222.36 578.267C1221.18 574.318 1221.08 574.532 1220.97 582.749C1220.86 588.619 1219.9 594.595 1217.87 601.959C1216.17 607.828 1213.71 617.113 1212.32 622.662C1210.94 628.532 1209.55 632.053 1209.12 631.2C1208.7 630.346 1207.31 622.449 1205.92 613.698C1204.64 604.84 1203.15 597.263 1202.61 596.623C1202.08 596.089 1201.65 603.453 1201.55 614.231C1201.55 624.476 1200.8 639.097 1200.05 646.78L1198.56 660.654L1198.88 631.306C1199.31 599.611 1198.77 597.903 1194.72 617.753C1193.65 622.875 1192.58 626.824 1192.37 626.611C1192.05 626.29 1190.98 620.421 1190.02 613.484C1188.95 606.121 1187.67 600.998 1187.03 601.105C1182.23 602.065 1187.89 565.354 1194.5 552.014C1196.53 548.172 1199.31 543.37 1200.8 541.449C1202.19 539.528 1204 536.22 1204.85 534.192C1205.6 532.165 1206.88 529.71 1207.52 528.856C1209.02 526.935 1211.26 519.358 1211.26 516.157C1211.26 512.742 1209.44 513.382 1203.68 519.145C1196.85 525.868 1192.05 536.22 1191.41 545.184C1191.09 548.813 1189.38 559.485 1187.46 568.876C1184.36 584.35 1184.04 585.524 1183.3 581.682C1181.8 573.892 1182.12 558.524 1183.83 553.402C1185.75 547.852 1187.25 531.311 1186.18 527.896C1185.11 524.374 1183.83 525.228 1180.63 531.204C1177 538.461 1175.93 552.441 1178.5 560.445C1182.02 571.117 1183.94 597.156 1181.59 599.504C1181.06 600.038 1179.56 595.129 1178.17 588.619C1176.79 582.216 1175.51 576.88 1175.29 576.88C1175.08 576.88 1175.08 586.591 1175.19 598.437L1175.4 620.101L1170.49 634.508L1165.48 648.915L1165.37 612.63C1165.16 563.433 1164.62 561.192 1160.25 592.888C1155.87 624.583 1155.66 626.184 1155.23 625.757C1155.02 625.543 1154.27 616.686 1153.63 605.907C1152.24 586.271 1150.53 579.975 1150.32 594.168C1150.32 598.864 1150 601.105 1149.47 599.931C1148.4 597.156 1147.65 598.544 1146.16 606.761C1144.56 614.658 1142.74 619.14 1143.7 612.63C1144.02 610.283 1145.41 602.385 1146.8 595.022C1148.19 587.658 1149.36 581.255 1149.36 580.615C1149.36 575.172 1139.65 604.2 1133.35 628.318C1131.43 635.895 1129.51 641.978 1129.08 641.978C1128.66 641.978 1128.02 631.306 1127.7 618.18C1126.95 594.702 1124.28 555.216 1122.79 548.066C1122.36 545.931 1121.29 559.911 1120.12 582.749C1117.88 627.038 1117.03 637.389 1115.96 633.441C1111.48 616.686 1109.98 606.014 1110.62 596.303C1111.05 589.473 1110.84 586.271 1110.2 587.018C1109.13 588.085 1102.94 615.939 1100.16 631.84C1098.88 639.31 1097.07 643.472 1097.07 638.99C1097.07 637.709 1095.36 627.678 1093.23 616.686L1089.38 596.623L1091.2 569.623C1092.27 554.789 1092.91 542.41 1092.59 542.196C1092.37 541.983 1090.56 549.88 1088.53 559.805C1086.5 569.836 1084.58 577.947 1084.16 577.947C1083.84 577.947 1082.88 573.038 1082.02 566.955L1080.53 556.07L1079.89 566.208C1079.46 571.757 1079.14 583.816 1079.03 592.888C1079.03 605.053 1078.18 614.765 1076.05 629.385C1074.44 640.484 1072.84 649.448 1072.52 649.448C1071.67 649.448 1068.04 624.263 1067.51 614.765C1067.19 610.603 1068.04 595.769 1069.22 581.789C1070.5 567.702 1071.46 554.789 1071.35 552.975C1071.24 549.987 1071.14 550.093 1069.86 554.469C1066.76 565.247 1069.11 551.16 1073.16 534.192C1074.12 530.35 1075.51 526.508 1076.26 525.655C1077.11 524.801 1078.71 521.706 1079.99 518.825C1081.17 515.943 1083.52 511.995 1085.22 510.074C1086.93 508.153 1088.85 504.738 1089.6 502.497C1090.35 500.256 1091.41 497.801 1092.05 497.054C1095.04 493.319 1098.56 478.698 1096.43 478.698C1093.44 478.698 1085.33 486.809 1080.74 494.493C1076.69 501.536 1073.59 511.995 1073.59 519.145C1073.59 522.453 1071.99 532.805 1069.96 542.196C1067.93 551.587 1065.48 564.287 1064.52 570.477C1062.6 581.789 1060.89 587.445 1060.78 582.322C1060.78 580.935 1060.36 578.054 1059.72 575.919C1056.3 563.22 1052.35 544.437 1051.82 538.568C1050.86 527.576 1044.88 516.263 1036.35 509.22C1032.61 506.018 1031.44 505.592 1030.8 506.765C1029.94 508.26 1032.72 517.758 1034.74 520.532C1035.39 521.279 1036.56 523.627 1037.31 525.655C1038.05 527.682 1040.08 530.777 1041.68 532.591C1043.28 534.299 1045.42 537.714 1046.38 540.062C1047.44 542.41 1048.94 545.078 1049.69 546.038C1052.67 549.346 1058.86 576.56 1059.08 586.698C1059.08 591.714 1058.86 595.662 1058.44 595.342C1057.9 595.129 1057.58 596.089 1057.58 597.476C1057.58 600.358 1056.73 603.026 1049.15 624.903L1043.82 640.377L1043.71 630.132C1043.6 607.508 1042.22 571.437 1041.57 572.824C1040.29 574.959 1030.05 614.978 1028.66 622.982C1027.06 631.52 1025.57 631.52 1025.57 622.982C1025.57 619.674 1024.29 605.374 1022.79 591.287C1021.3 577.2 1019.8 559.378 1019.48 551.587C1019.06 540.275 1018.63 537.714 1017.46 538.141C1016.39 538.568 1015.96 537.714 1015.96 535.153C1015.96 533.125 1015.54 530.884 1015.11 530.244C1014.58 529.497 1014.25 539.101 1014.25 551.587C1014.25 567.702 1013.51 579.868 1011.91 593.955C1010.63 604.84 1009.03 618.607 1008.39 624.69C1007.64 630.666 1007 635.468 1006.78 635.362C1006.57 635.041 1003.16 586.805 1003.16 583.39C1003.16 579.548 1001.45 584.137 1000.92 589.473C1000.38 594.382 1000.27 593.314 1000.06 584.03C1000.06 577.733 999.528 572.611 998.994 572.611C998.461 572.611 997.18 579.121 996.22 587.125C994.192 602.172 993.231 603.346 991.951 592.354C990.777 581.362 983.84 537.927 983.2 537.394C982.88 537.074 982.986 546.251 983.413 557.777C984.16 578.48 984.16 579.121 980.212 605.8C977.971 620.741 975.73 633.334 975.196 633.974C974.769 634.508 974.342 632.16 974.342 628.638C974.342 619.14 971.461 589.046 968.9 572.611C967.726 564.714 966.445 556.39 966.125 554.149C965.058 546.892 963.99 549.026 963.35 560.125C963.03 566.101 961.963 584.884 961.002 601.959C958.975 638.67 958.868 639.95 956.627 639.097C955.24 638.563 955.026 634.294 955.346 605.053C955.56 586.698 955.346 571.971 955.026 572.398C953.319 574.318 942.327 626.29 942.327 632.48C942.327 634.188 941.686 634.615 939.445 634.294L936.457 633.974L935.07 617.966C933.682 601.532 934.109 593.314 937.417 568.556C938.165 563.22 938.485 558.738 938.058 558.738C937.417 558.738 929.84 590.433 925.572 611.243C924.611 616.472 923.437 620.634 923.01 620.634C922.263 620.634 920.983 606.121 920.983 597.903C920.983 588.725 919.169 592.674 918.101 604.306C917.141 615.085 917.034 615.298 916.927 608.575C916.821 604.52 916.287 601.532 915.754 601.852C915.327 602.172 914.26 607.721 913.512 614.231C912.659 620.741 911.698 626.29 911.165 626.611C910.738 626.931 909.35 626.931 908.283 626.504C906.469 625.97 906.256 624.049 905.509 603.239C904.975 584.884 905.082 577.627 906.576 565.354C908.39 550.2 908.283 543.37 906.362 552.334C905.829 555.002 904.868 557.03 904.228 556.923C903.588 556.817 902.841 559.911 902.414 564.394C901.987 568.662 899.746 583.283 897.291 596.836C892.596 623.623 892.809 623.089 886.513 620.741C884.272 619.887 883.738 618.5 882.137 609.749C881.177 604.306 879.789 597.156 879.149 593.955C878.082 588.619 877.868 588.299 877.121 591.073C876.695 592.674 875.947 599.291 875.627 605.694C874.774 618.927 875.094 618.5 866.023 615.512L860.687 613.698L860.367 605.267C860.046 597.69 860.58 595.342 865.382 580.081C868.691 569.943 871.572 562.579 872.959 561.405C874.133 560.338 875.094 558.844 875.094 557.99C875.094 557.243 877.121 554.362 879.576 551.694C883.951 546.998 886.299 543.263 891.742 532.271C896.971 521.706 893.022 521.386 882.991 531.524C876.588 538.034 872.319 546.145 870.718 555.002C869.438 562.153 861.22 589.686 859.94 591.18C859.513 591.82 859.086 587.658 859.086 582.002C859.086 576.239 859.513 571.33 860.153 571.01C860.793 570.69 861.22 569.196 861.22 567.702C861.22 566.208 862.181 562.793 863.248 560.018C866.77 551.587 869.331 536.753 867.73 534.299C866.45 532.271 865.062 533.338 861.754 538.995C858.552 544.544 855.457 557.884 856.418 561.939C857.485 565.994 858.979 597.476 858.125 598.97C857.699 599.718 856.631 592.034 855.564 581.895C854.604 571.864 853.003 558.524 852.042 552.334C851.082 546.145 850.655 538.888 850.975 536.113C851.295 533.338 851.082 528.003 850.442 524.374C849.375 517.331 843.292 503.137 839.877 499.509C838.703 498.335 836.888 496.307 835.608 494.92C832.62 491.611 830.272 491.825 830.272 495.453C830.379 498.975 832.513 507.192 834.22 510.18C834.861 511.354 835.715 514.022 836.141 516.05C836.568 518.078 838.489 522.133 840.41 525.121C842.331 528.003 844.572 532.378 845.319 534.726C845.96 537.074 847.24 539.955 847.88 541.129C849.375 543.477 852.79 564.18 852.576 569.089C852.363 571.864 852.363 571.757 851.616 568.342C851.189 566.208 850.762 574.852 850.655 587.765C850.548 604.306 850.228 611.03 849.375 611.03C848.627 611.03 846.173 610.496 843.825 609.749L839.663 608.468L840.197 599.931C842.438 569.73 842.118 566.955 838.169 584.884C837.102 589.579 836.141 592.674 835.928 591.82C835.715 590.967 834.434 582.002 833.047 572.077L830.485 553.935L830.379 579.761C830.272 594.061 829.952 605.694 829.525 605.694C827.497 605.694 811.489 599.931 810.956 598.97C810.529 598.437 809.782 598.223 809.248 598.544C808.608 598.97 806.367 598.757 804.232 598.117L800.284 597.05L801.031 576.773C801.458 565.674 801.565 556.603 801.244 556.603C800.924 556.603 799.323 565.141 797.723 575.492C796.122 585.951 794.628 594.595 794.521 594.808C793.774 595.769 774.031 591.073 772.964 589.686C771.79 588.299 771.683 588.299 771.577 589.686C771.577 590.967 770.403 591.18 765.707 590.967L759.837 590.54V584.563C759.837 575.492 758.13 574.318 757.49 582.749C757.17 586.698 756.422 590.22 755.996 590.753C755.462 591.18 753.221 591.82 750.873 592.14L746.711 592.781L747.351 587.765C747.885 582.856 747.885 582.749 746.498 585.951C745.644 587.658 745.004 589.899 744.897 590.86C744.897 592.994 742.762 595.022 740.628 595.022C739.134 595.022 739.241 593.741 741.268 583.496C742.549 577.2 744.577 568.983 745.964 565.141C747.885 559.591 748.205 556.71 747.778 550.734C747.138 542.516 743.51 532.698 741.375 533.338C739.454 533.979 738.707 543.05 739.774 552.868C741.589 569.516 741.589 574.318 739.988 582.643C739.134 587.338 738.28 591.287 738.067 591.5C737.427 592.14 734.118 562.366 733.798 552.868C733.371 541.022 729.956 531.738 723.02 524.054C719.284 519.785 718.004 519.038 716.937 520.105C715.869 521.173 715.976 522.667 717.363 527.576C720.031 537.074 723.02 544.757 725.367 547.852C726.541 549.453 728.142 552.655 728.889 555.002C729.636 557.35 730.703 559.805 731.237 560.445C732.197 561.832 734.652 576.133 735.932 587.978L736.68 595.235L730.917 594.488C727.715 594.061 723.767 592.674 721.952 591.287C720.245 589.899 715.229 587.125 711.067 584.99C706.798 582.856 703.277 580.615 703.277 580.081C703.277 579.548 702.53 579.334 701.676 579.654C699.221 580.615 697.087 578.267 696.34 573.571C695.913 571.33 695.166 569.409 694.739 569.409C694.205 569.409 694.099 571.117 694.419 573.145C694.739 575.172 694.632 576.88 694.099 576.88C693.565 576.88 687.482 574.639 680.652 571.864L668.059 566.848V562.9C668.059 560.658 667.632 558.524 666.992 558.204C666.352 557.777 665.925 559.271 665.925 561.726V565.994L653.012 561.085L640.099 556.176L640.633 552.121C640.953 549.88 640.739 548.066 640.206 548.066C639.672 548.066 639.245 549.133 639.245 550.413C639.245 554.469 637.751 555.963 635.19 554.575C634.016 553.935 627.079 552.868 619.822 552.334C601.894 550.734 592.396 548.919 581.084 544.437C556.005 534.833 531.353 532.165 513.317 537.394C511.29 537.927 506.38 538.461 502.539 538.461H495.388L496.562 534.726C497.203 532.698 497.309 530.67 496.989 530.35C496.135 529.497 492.72 531.738 487.918 536.22C484.61 539.315 483.436 539.635 473.511 540.595C467.535 541.236 460.812 541.983 458.677 542.303C454.622 542.943 454.622 542.836 454.622 539.315C454.622 534.406 451.847 525.441 448.219 518.078C445.124 511.995 437.333 503.03 434.132 501.856C430.397 500.576 432.104 510.394 437.547 522.133C438.721 524.694 439.681 527.149 439.681 527.682C439.681 528.216 441.389 530.884 443.523 533.659C445.551 536.433 447.685 539.742 448.219 541.236C449.393 544.224 451.634 543.477 416.737 551.374C403.29 554.362 391.124 557.03 389.737 557.35L387.389 557.884L387.602 517.01L387.923 476.03L390.911 475.71C393.792 475.39 393.792 475.283 393.792 467.386C393.792 459.703 393.685 459.489 391.124 459.489C388.99 459.489 388.456 460.023 388.456 462.157C388.456 463.651 388.029 464.825 387.389 464.825C386.749 464.825 386.322 456.608 386.322 442.414C386.322 429.394 386.749 420.003 387.282 420.003C387.816 420.003 385.682 414.24 382.48 407.09C379.065 399.513 376.717 392.576 376.61 390.335C376.61 388.201 376.184 385.426 375.65 384.252C375.01 382.758 374.69 383.719 374.69 388.094C374.583 392.79 373.516 396.525 369.674 405.169L364.765 416.268L364.658 439.746C364.551 454.367 364.018 463.331 363.377 463.544C362.844 463.651 362.203 462.797 361.99 461.623C361.67 460.023 360.923 459.489 359.322 459.703C356.867 460.023 356.867 460.129 357.294 470.908C357.508 475.07 357.828 475.497 360.176 475.497C362.737 475.497 362.844 475.71 362.844 482.434V489.264L356.227 489.584C349.824 489.904 349.504 490.011 349.184 492.785C348.864 495.667 348.65 495.773 341.927 495.773H335.097V492.572C335.097 489.69 334.777 489.37 331.895 489.37H328.694V468.56V447.75H322.931C317.168 447.75 317.061 447.75 316.741 451.165C316.421 454.687 316.421 454.687 310.338 454.9C304.148 455.007 304.148 455.007 304.148 451.912C304.148 450.098 303.508 448.497 302.548 448.177C300.307 447.216 300.093 395.778 302.441 393.964C303.615 393.003 302.227 388.948 294.437 371.446L284.939 350.102V340.818V331.533L288.994 330.466C296.465 328.545 303.081 327.905 303.081 329.185C303.081 330.893 307.563 330.573 318.982 328.225C324.532 327.051 331.895 325.984 335.524 325.984C339.152 325.877 341.073 325.664 339.899 325.344C332.536 323.85 332.322 323.529 337.231 322.782C339.899 322.355 333.283 322.142 322.504 322.355C304.895 322.676 303.081 322.569 303.295 320.968C303.615 319.367 302.227 319.154 293.903 318.834L284.192 318.514L283.658 334.842ZM1060.46 590.967C1060.14 591.714 1059.93 591.18 1059.93 589.686C1059.93 588.192 1060.14 587.658 1060.46 588.299C1060.68 589.046 1060.68 590.326 1060.46 590.967ZM1149.04 611.243C1148.83 612.63 1148.61 611.563 1148.61 608.895C1148.61 606.227 1148.83 605.16 1149.04 606.441C1149.25 607.828 1149.25 609.963 1149.04 611.243Z" fill="#2B2821"/>
<path d="M375.65 376.355C375.65 380.304 375.863 380.624 378.104 379.877C379.385 379.45 384.294 378.916 388.99 378.81C397.527 378.49 411.721 376.675 408.733 376.355C407.559 376.142 407.666 375.822 409.266 375.075C410.654 374.434 407.345 374.221 399.448 374.434C390.27 374.648 387.389 374.327 387.389 373.367C387.389 372.407 385.575 371.98 381.519 371.98H375.65V376.355Z" fill="#2B2821"/>
<path d="M1055.98 518.184C1054.91 519.892 1056.41 538.461 1057.9 541.129C1060.14 545.398 1061.85 558.097 1061.32 567.702L1060.89 577.413L1061.96 568.342C1062.49 563.326 1063.67 555.963 1064.63 552.014C1067.08 541.983 1066.12 531.631 1062.17 523.734C1059.08 517.651 1057.26 516.05 1055.98 518.184Z" fill="#2B2821"/>
<path d="M58.0893 -58.8292C57.9965 -58.7596 57.927 -56.6491 57.927 -54.1443C57.9038 -49.0884 57.7646 -48.323 56.3035 -45.9342C55.4686 -44.5427 55.0743 -44.0789 47.9311 -36.1239C38.5846 -25.6642 31.8124 -17.6164 27.0812 -11.3313C17.2013 1.8187 9.84933 10.2143 -2.23386 22.2975C-10.1888 30.2525 -15.6158 35.2388 -21.3907 39.9236C-23.1069 41.3384 -25.9596 43.704 -27.7222 45.2115C-29.4848 46.6958 -31.2474 48.0873 -31.6417 48.2961C-32.3143 48.644 -32.639 48.644 -35.8627 48.2729C-49.9868 46.6958 -54.9963 45.9768 -60.7248 44.794C-61.1887 44.6781 -61.5134 44.7476 -61.6989 44.9564C-61.9076 45.2347 -61.4438 45.629 -59.1478 47.1133C-55.0891 49.734 -51.4711 51.1487 -48.8504 51.1719C-48.4561 51.1719 -47.9691 51.3343 -47.8067 51.5662C-47.6212 51.7749 -46.4616 52.749 -45.2324 53.7695C-44.0032 54.7667 -42.9363 55.6712 -42.8668 55.7872C-42.7972 55.9031 -43.3538 56.6917 -44.1423 57.5498C-44.9077 58.4079 -45.4875 59.1501 -45.4411 59.2196C-45.3715 59.266 -44.583 58.9413 -43.6785 58.5007C-42.774 58.0368 -41.7072 57.6658 -41.2665 57.6658C-40.478 57.6658 -40.6635 57.5498 -32.1055 64.0668C-28.7659 66.618 -27.7454 67.0586 -25.2174 67.0355C-23.2229 67.0123 -21.3443 66.502 -15.9637 64.4611C-14.4562 63.8813 -13.1574 63.5102 -13.0647 63.6262C-10.1424 67.7776 -8.19428 71.0245 -6.26932 74.944C-2.02513 83.6179 -1.56129 89.6248 -4.92417 92.7789C-5.55036 93.3587 -6.43167 94.0081 -6.87232 94.24C-7.56809 94.5647 -9.0524 96.3041 -8.82047 96.5129C-8.77409 96.5361 -7.33617 95.7011 -5.59675 94.6575C-3.85732 93.6138 -1.60767 92.4078 -0.610401 91.9672L1.22179 91.1786L7.01987 91.2018C17.8739 91.2482 27.058 92.7325 36.5437 95.9562C39.9297 97.1159 45.5423 99.5279 45.7742 99.9221C45.867 100.038 45.6119 100.479 45.2176 100.873C44.1276 102.033 40.1385 107.135 37.8424 110.312C29.9802 121.166 23.8343 132.067 19.7756 142.318C17.6883 147.582 13.9544 152.94 8.75929 158.088C3.14675 163.655 -3.37028 167.528 -9.60901 168.966C-13.9228 169.986 -20.2079 169.986 -25.1015 168.989C-33.1028 167.365 -40.1765 163.353 -45.3483 157.509C-53.8135 147.953 -58.2201 133.319 -58.3128 114.556L-58.336 109.269L-57.3851 105.674C-54.9268 96.2114 -51.8654 88.8594 -47.9923 83.0381C-46.1601 80.2783 -42.9827 76.7994 -40.7795 75.1296C-39.272 74.0163 -36.3961 72.5088 -35.7235 72.5088C-35.1901 72.5088 -34.8422 71.8131 -34.8422 70.6998C-34.8422 68.8908 -36.0946 68.6589 -39.5271 69.7953C-56.8517 75.5934 -67.2419 94.356 -69.8626 124.506C-70.1641 127.776 -70.0018 130.188 -69.0509 136.891C-66.2446 156.442 -59.6812 171.447 -49.3374 181.861C-41.1969 190.071 -30.9459 195.103 -18.2134 197.191C-13.4357 197.956 -3.13836 197.886 1.33775 197.028C3.16994 196.68 9.13037 194.639 11.6119 193.526C22.9066 188.447 33.6678 179.866 43.4318 168.177C45.4495 165.788 49.2299 160.848 50.1344 159.41C50.3663 159.062 50.7374 158.784 50.9461 158.784C51.1548 158.784 52.3608 159.387 53.6364 160.106L55.9556 161.451L56.9761 163.446L58.0197 165.44L56.9529 166.67C55.5382 168.293 54.7728 169.731 54.193 171.934C53.7755 173.465 53.6828 174.509 53.6364 178.498C53.59 183.368 53.4045 184.783 52.5927 186.383C51.9202 187.682 51.0157 188.424 49.6473 188.841C46.1917 189.862 45.6582 191.648 47.5136 196.031C49.3922 200.507 49.9952 203.453 50.1575 209.251C50.2967 214.214 50.8301 217.553 51.5955 218.18C51.8042 218.365 51.897 219.015 51.897 220.128C51.897 222.006 52.3376 223.769 53.0102 224.511C53.474 225.021 54.2162 227.619 54.2162 228.755C54.2162 229.103 54.309 229.544 54.4249 229.729C54.5873 229.985 54.7032 229.822 54.8888 229.15C55.2367 227.828 55.6077 225.416 55.6541 224.001L55.7237 222.772L57.3008 224.001C59.3185 225.601 60.6173 227.642 60.2462 228.663C59.8287 229.892 59.9679 231.376 60.5941 232.443C61.0811 233.255 61.1507 233.603 61.0347 234.553C60.942 235.156 60.6637 236.107 60.4085 236.641C59.8751 237.754 60.0143 238.148 60.71 237.522C61.7073 236.618 62.3567 234.669 63.3772 229.706C64.5832 223.839 64.6295 224.163 61.7537 221.287C58.5995 218.133 58.1589 217.368 57.324 213.75C57.0225 212.405 56.9761 210.92 57.0457 205.238L57.1152 198.327L58.2517 195.544C59.5272 192.367 61.313 188.818 62.7974 186.592L63.7946 185.038L64.9774 185.386C66.5313 185.826 70.6132 187.775 72.5149 188.981C73.3498 189.491 75.1125 190.743 76.4112 191.74C78.7073 193.526 78.8232 193.573 80.0524 193.573C80.7714 193.573 82.0933 193.433 83.021 193.294C84.343 193.062 84.6909 193.062 84.7837 193.294C84.8996 193.665 86.0592 194.268 86.639 194.268C86.871 194.268 87.2652 194.477 87.4972 194.732C88.077 195.382 89.4685 196.217 89.6308 196.031C89.8628 195.822 89.2134 194.083 88.4944 192.946C88.1465 192.39 87.845 191.787 87.845 191.601C87.845 191.416 87.5899 191.091 87.2652 190.882C86.9405 190.674 86.6854 190.395 86.6854 190.279C86.6854 189.955 88.5872 187.311 89.2598 186.708C89.5613 186.429 90.1875 186.151 90.6281 186.082C91.3239 185.989 91.5558 186.082 92.2052 186.754C92.785 187.357 93.1561 187.543 93.7823 187.543C94.5012 187.543 94.8491 187.775 96.2175 189.097C97.6786 190.511 97.8177 190.581 97.8177 190.047C97.8177 188.517 96.6581 186.476 94.4316 184.064C93.6663 183.252 93.272 182.672 93.4808 182.672C93.6663 182.672 93.9446 182.51 94.107 182.324C94.3621 182.023 94.478 182.069 94.9651 182.788C95.7304 183.925 96.1943 184.11 97.9337 183.925C99.3948 183.762 99.4876 183.785 100.16 184.435C100.554 184.806 101.134 185.548 101.459 186.105C102.271 187.473 102.619 187.032 101.992 185.409C101.25 183.391 99.9746 181.745 98.2816 180.655C97.4698 180.098 96.5885 179.402 96.3102 179.077C95.8696 178.498 95.7072 178.474 93.504 178.428L91.1383 178.382L89.9555 179.495C89.0742 180.33 88.6336 180.585 88.3553 180.446C88.1465 180.353 87.0797 180.191 86.0128 180.098C84.946 179.982 83.5545 179.727 82.9515 179.541C82.3253 179.333 81.1888 179.077 80.4235 178.961C78.8 178.73 72.5613 175.784 71.077 174.555L70.1957 173.813L71.2857 171.795C72.8628 168.873 75.1125 165.487 76.5272 163.956C77.223 163.214 78.2666 161.822 78.8696 160.848C80.4003 158.367 80.3771 157.996 78.313 154.378C72.7237 144.521 71.8655 141.668 72.1207 133.458L72.1902 130.768L75.8314 127.057L79.4494 123.346L82.3021 122.975C87.1493 122.326 92.2284 121.445 93.8055 120.958L95.313 120.494L99.6499 123.277C105.425 126.964 109.089 129.168 111.362 130.304C113.055 131.162 113.403 131.255 114.957 131.255C116.603 131.255 116.673 131.278 117.091 131.974C117.322 132.368 117.601 133.064 117.67 133.505C117.74 133.945 118.065 134.571 118.389 134.896C118.691 135.221 119.387 136.195 119.92 137.076C120.453 137.957 121.033 138.723 121.196 138.792C121.891 139.024 121.149 134.363 120.106 132.067C119.711 131.209 119.387 130.443 119.387 130.374C119.387 130.304 119.734 130.258 120.152 130.258C121.172 130.258 123.352 129.678 124.466 129.098L125.37 128.657L125.509 129.353C125.579 129.724 126.043 130.443 126.53 130.907C127.179 131.533 127.527 132.159 127.759 132.994C128.107 134.432 128.501 134.432 128.687 133.018L128.803 131.997L129.104 132.693C129.266 133.064 129.452 134.154 129.522 135.058C129.591 135.986 129.754 136.751 129.846 136.751C130.658 136.751 130.774 132.507 130.055 129.817C129.568 127.962 129.429 125.967 129.823 126.199C129.962 126.269 130.055 126.64 130.055 127.011C130.055 128.031 130.264 128.356 131.307 129.075C132.328 129.794 132.838 131 132.838 132.693C132.838 133.528 133.14 133.783 133.395 133.134C133.464 132.925 133.534 131.974 133.534 131C133.534 129.539 133.372 128.75 132.653 126.663L131.771 124.112L130.148 123.254C129.266 122.767 128.385 122.372 128.176 122.372C127.991 122.372 127.573 122.627 127.272 122.952C126.878 123.37 126.483 123.532 125.88 123.532C125.417 123.532 123.955 123.694 122.61 123.903C119.874 124.32 115.05 124.158 113.519 123.625C112.336 123.207 110.968 122.117 109.831 120.679C109.159 119.798 108.996 119.473 109.228 119.334C109.785 118.986 110.713 119.125 111.849 119.728C113.31 120.494 117.299 121.329 117.299 120.865C117.299 120.772 117.091 120.331 116.812 119.914C116.302 119.056 112.359 116.11 111.756 116.11C111.548 116.11 111.849 115.647 112.591 114.881C113.241 114.232 113.936 113.327 114.168 112.91C114.539 112.168 114.586 112.144 115.513 112.307C116.256 112.423 116.719 112.701 117.438 113.49C118.111 114.209 118.575 114.51 118.946 114.487C119.943 114.394 120.106 114.487 121.497 115.809C122.819 117.061 122.865 117.084 122.865 116.481C122.865 115.647 121.683 113.374 120.477 111.889C119.92 111.194 119.387 110.382 119.317 110.08C119.224 109.756 118.807 108.944 118.343 108.271C117.902 107.576 117.531 106.973 117.531 106.903C117.531 106.857 117.763 106.833 118.041 106.88C118.343 106.926 118.737 107.32 119.039 107.854C119.665 108.99 120.43 109.408 121.497 109.245C122.68 109.083 123.654 109.918 124.187 111.611C124.396 112.307 124.651 112.863 124.767 112.863C125.069 112.863 124.976 110.938 124.605 109.686C124.373 108.898 123.839 108.063 123.028 107.158C122.378 106.393 121.427 105.233 120.94 104.584C119.943 103.215 119.503 103.03 116.557 102.798C114.887 102.659 114.771 102.682 114.354 103.192C113.96 103.702 113.797 103.749 112.614 103.633C111.432 103.54 111.2 103.61 110.573 104.12C110.202 104.445 109.646 104.793 109.367 104.862C109.066 104.955 108.324 105.558 107.674 106.23C106.167 107.784 104.288 108.712 102.41 108.851L100.949 108.967L99.2788 106.787C98.3743 105.604 97.3075 104.329 96.9364 103.981C96.3102 103.378 96.287 103.285 96.519 102.357C96.6581 101.778 97.2843 100.734 97.9569 99.8757C100.531 96.652 101.644 94.0545 102.108 90.2973C102.294 88.8594 102.549 87.2128 102.665 86.6561C102.804 86.0763 102.92 85.1254 102.92 84.5456C102.92 83.6643 103.129 83.1309 104.149 81.5306C109.715 72.648 117.392 65.8758 123.677 64.2756C126.646 63.5334 129.962 63.9509 132.815 65.4352C136.526 67.3833 140.19 72.0218 139.077 73.3438C138.822 73.6453 138.451 73.6684 136.85 73.5525L134.925 73.3901V74.0163C134.925 74.3642 135.412 75.8485 135.992 77.3328C137.082 80.0695 138.08 83.5716 137.848 83.8035C137.662 83.989 136.131 82.9918 135.737 82.4119L135.389 81.9249V82.4815C135.412 83.3396 136.155 84.8703 137.129 85.9372C138.08 86.9808 138.149 87.1896 138.775 91.8048C139.077 93.8921 139.193 96.3273 139.193 100.919L139.216 107.181L138.474 108.782C138.056 109.64 137.708 110.498 137.708 110.66C137.708 110.846 138.126 111.031 138.706 111.124C139.958 111.333 140.839 111.797 142.092 112.887C143.599 114.232 144.202 114.139 145.269 112.4C145.733 111.634 146.22 111.008 146.336 111.008C146.452 111.008 146.498 110.799 146.406 110.544C146.29 110.196 146.406 110.057 146.893 109.941L147.519 109.779L146.985 109.385C146.591 109.083 146.498 108.851 146.591 108.411C146.753 107.808 147.31 107.529 148.331 107.529C149.05 107.529 148.98 107.297 147.983 106.462C147.287 105.859 147.171 105.651 147.31 105.14C147.449 104.561 147.565 104.514 148.562 104.514H149.653L148.91 103.911C147.751 103.03 147.89 101.94 149.189 101.638L149.884 101.453L149.351 101.059C148.934 100.757 148.841 100.525 148.957 100.061C149.189 99.1336 149.699 99.0872 149.977 99.9453C150.557 101.731 151.647 106.671 151.902 108.573C152.18 110.892 152.505 111.518 153.039 110.869C153.734 110.034 153.502 105.929 152.412 99.8757L152.273 99.064L153.688 99.1336C154.848 99.2032 155.149 99.3191 155.358 99.7134C155.636 100.224 155.567 100.316 154.013 101.453C153.085 102.125 153.526 102.427 155.358 102.427C156.773 102.427 156.981 102.473 156.912 102.821C156.865 103.053 156.494 103.447 156.1 103.726C155.265 104.282 155.335 104.514 156.262 104.514C157.399 104.514 158.35 104.793 158.35 105.14C158.35 105.326 158.094 105.72 157.77 106.022L157.213 106.602H158.164C158.976 106.602 159.092 106.648 158.976 107.065C158.883 107.413 158.976 107.529 159.324 107.529C159.579 107.529 160.251 107.993 160.831 108.573C161.388 109.153 162.06 109.617 162.292 109.617C162.849 109.617 164.635 107.344 165.562 105.442C166.676 103.215 166.977 98.8553 166.165 96.8607C166.049 96.5361 165.864 95.0517 165.771 93.5442C165.655 91.9208 165.47 90.6916 165.307 90.4829C165.052 90.1814 165.099 90.019 165.609 89.4856C166.467 88.5811 166.699 87.7926 166.861 85.2878C166.954 83.4788 167.186 82.4351 168.114 79.6984C168.74 77.8431 169.32 75.663 169.389 74.8281C169.551 73.1582 169.273 73.1118 168.786 74.7121C168.415 75.9413 167.627 77.3328 167.232 77.472C167.047 77.5648 166.652 77.0545 166.142 76.0341C164.843 73.4133 164.287 71.2796 163.545 66.015C162.895 61.3765 161.689 57.4802 159.973 54.4652C159.3 53.3288 158.628 52.9809 158.929 53.955C159.161 54.6508 159.115 59.5443 158.883 59.7763C158.744 59.9154 158.396 59.6371 157.955 59.0109C157.074 57.7585 153.874 54.6276 151.74 52.8882C149.119 50.7777 144.272 47.3684 141.79 45.9536C140.515 45.2115 138.451 43.9591 137.175 43.1474C134.462 41.4311 133.673 41.1296 129.823 40.5035C128.223 40.2483 126.112 39.8541 125.138 39.6453C123.631 39.3438 123.028 39.3206 121.242 39.5526C118.923 39.8541 114.794 40.8513 111.803 41.8718C110.736 42.2197 109.901 42.4052 109.947 42.2661C110.017 42.1269 111.037 40.5035 112.243 38.6481C113.449 36.7927 115.05 34.2879 115.815 33.0587L117.183 30.8323L118.9 30.6699C119.85 30.6003 121.358 30.5308 122.262 30.5308C123.955 30.5308 124.396 30.3684 125.648 29.2552C126.089 28.8609 126.623 28.6986 127.968 28.6058C128.919 28.513 130.333 28.2347 131.099 27.9796C131.864 27.7245 136.363 26.3562 141.071 24.9414C154.801 20.8596 155.195 20.6972 157.654 18.4708L158.466 17.7518L157.19 17.8446C156.494 17.9142 154.314 18.494 152.343 19.1665C148.493 20.4653 147.913 20.4885 147.472 19.3289C147.356 19.0274 147.055 16.082 146.777 12.7655C146.011 3.16385 145.988 1.91147 146.406 -0.314991C146.962 -3.37637 147.078 -4.42003 146.8 -4.58237C146.684 -4.65195 146.197 -4.2113 145.71 -3.6083C144.829 -2.44868 141.976 0.10247 140.236 1.26208C138.961 2.14339 132.073 8.98512 128.316 13.1365C124.442 17.4039 116.256 24.9646 113.565 26.7504L112.684 27.3302L108.556 27.1215C106.283 26.9823 104.242 26.82 104.033 26.704C103.662 26.5649 103.616 26.704 103.616 28.0492V29.5567L102.41 30.6235C101.76 31.2033 100.485 32.0151 99.5803 32.4325C95.7536 34.2183 91.579 36.352 90.1875 37.2565C87.6595 38.9032 78.3826 43.3793 71.5177 46.3015C70.2421 46.8349 68.4099 47.4379 67.459 47.6003C63.1916 48.412 62.0784 48.8991 60.107 50.7545L59.3881 51.427L55.4686 51.2415L51.5491 51.056L54.3322 48.8295C58.0197 45.8841 62.2175 42.7995 63.4467 42.1037C64.0961 41.7558 64.8847 40.9673 65.6268 39.97C66.972 38.0915 68.0388 37.5116 71.2857 36.7927C73.0252 36.4216 73.4426 36.2361 73.9528 35.6331C74.6022 34.8677 74.9965 34.7054 79.4958 33.5226C82.534 32.7108 85.8505 32.1078 86.3375 32.2934C86.7318 32.4557 87.5203 32.0615 88.4248 31.2265C88.8191 30.8786 90.257 29.9973 91.6718 29.2552C94.594 27.7477 103.685 22.2975 106.7 20.2798C108.764 18.8882 110.202 17.3575 111.524 15.1079C112.638 13.1829 112.591 13.1829 109.02 14.9223L106.283 16.2443H103.384C100.23 16.2675 98.7454 15.9428 96.0087 14.7368C90.489 12.2784 85.0852 6.45716 81.2584 -1.17311C79.9597 -3.77064 72.0511 -21.4432 69.4535 -27.5659C65.5572 -36.7501 64.1425 -40.8783 62.3335 -48.1607C60.1998 -56.8346 59.017 -59.78 58.0893 -58.8292ZM152.505 92.0367C152.946 92.4774 152.83 93.0804 152.273 93.2196C151.624 93.4051 151.601 93.3587 151.763 92.5006C151.925 91.6889 152.065 91.5961 152.505 92.0367ZM153.294 94.4024C153.595 94.843 153.502 95.0286 152.783 95.3069C151.856 95.6547 151.902 95.8635 152.992 96.165C154.245 96.4897 154.407 97.2086 153.41 98.0667C152.992 98.4146 152.552 98.6929 152.412 98.7161C152.134 98.7161 151.276 94.7039 151.462 94.2168C151.577 93.9385 151.809 93.8921 152.366 94.0081C152.783 94.0777 153.201 94.2632 153.294 94.4024Z" fill="#2B2821"/>
</g>
<defs>
<clipPath id="clip0">
<rect width="1366" height="768" fill="white"/>
</clipPath>
</defs>
</svg>
